<?xml version="1.0" standalone="no"?><!DOCTYPE svg PUBLIC "-//W3C//DTD SVG 1.1//EN" "http://www.w3.org/Graphics/SVG/1.1/DTD/svg11.dtd"><svg class="icon" width="200px" height="200.00px" viewBox="0 0 1024 1024" version="1.1" xmlns="http://www.w3.org/2000/svg"><path fill="#333333" d="M992 512A480 480 0 0 0 512 32 480 480 0 0 0 32 512a480 480 0 0 0 480 480 480 480 0 0 0 480-480z m-68.8 0A411.2 411.2 0 1 1 512 100.8 411.68 411.68 0 0 1 923.2 512z"  /><path fill="#333333" d="M487.68 787.36L276.96 576a34.4 34.4 0 1 1 48-48l151.36 151.36V260.96a34.4 34.4 0 1 1 68.64 0v419.84L698.4 528a34.4 34.4 0 1 1 48 48L536.32 787.36a34.4 34.4 0 0 1-48 0z"  /></svg>