<?xml version="1.0" standalone="no"?><!DOCTYPE svg PUBLIC "-//W3C//DTD SVG 1.1//EN" "http://www.w3.org/Graphics/SVG/1.1/DTD/svg11.dtd"><svg class="icon" width="200px" height="200.00px" viewBox="0 0 1024 1024" version="1.1" xmlns="http://www.w3.org/2000/svg"><path fill="#333333" d="M954.24 325.12a480 480 0 0 0-629.12-256 480 480 0 0 0-256 629.12 480 480 0 0 0 629.12 256 480 480 0 0 0 256-629.12zM512 923.2A411.2 411.2 0 1 1 923.2 512 411.68 411.68 0 0 1 512 923.2z"  /><path fill="#333333" d="M487.68 236.64L276.96 448a34.4 34.4 0 1 0 48 48l151.36-151.36v418.4a34.4 34.4 0 1 0 68.64 0V343.2L698.4 496a34.4 34.4 0 1 0 48-48L536.32 236.64a34.4 34.4 0 0 0-48 0z"  /></svg>